<?xml version="1.0" encoding="UTF-8" standalone="no"?>
<!-- Created with Inkscape (http://www.inkscape.org/) -->

<svg
   width="137.51854mm"
   height="67.610443mm"
   viewBox="0 0 137.51854 67.610443"
   version="1.1"
   id="svg1"
   xml:space="preserve"
   xmlns="http://www.w3.org/2000/svg"
   xmlns:svg="http://www.w3.org/2000/svg"><defs
     id="defs1" /><g
     id="layer1"
     transform="translate(-36.795704,-102.3752)"><path
       d="m 130.31993,120.76826 h -0.12038 c -0.55037,-0.78132 -1.39279,-1.7366 -2.2871,-2.12252 -1.14922,-0.4959 -2.99773,-0.18029 -4.21306,-0.0646 -2.98421,0.28399 -6.64128,-0.40332 -7.94464,3.15015 -0.63134,-0.36313 -1.17869,-0.94347 -1.92597,-1.05774 -1.03261,-0.15788 -2.71607,0.35252 -3.55947,-0.4486 -0.82009,-0.77897 -0.40426,-2.34949 -0.81819,-3.3086 -1.00991,-2.33998 -4.80967,-3.72717 -7.05782,-2.29071 -0.87619,0.55984 -2.0967,1.69469 -2.26146,2.77221 -0.12369,0.8089 0.37152,3.36553 -0.754476,3.64157 -0.612374,0.15012 -1.387938,-0.67493 -2.03975,-0.73998 -2.038383,-0.20341 -4.088999,-0.37376 -6.139042,-0.37376 -0.861327,0 -1.870702,-0.15704 -2.648214,0.28496 -1.398933,0.79528 -1.970577,2.10409 -2.648214,3.44662 -0.55831,-2.34504 0.120002,-5.00892 -0.558306,-7.34278 -0.867737,-2.98561 -5.120802,-3.73918 -7.747457,-3.85195 0,-2.71642 0.09039,-6.01177 -2.88896,-7.29855 -1.571881,-0.67891 -3.628712,-0.44904 -5.296428,-0.76646 -2.970844,-0.56543 -8.534067,-0.84736 -8.546509,3.49083 -0.662243,0 -1.939151,0.35106 -2.515302,0.0965 -0.729341,-0.32224 -1.150093,-1.68226 -1.702596,-2.26322 -0.568382,-0.59767 -1.173224,-1.33059 -1.921144,-1.70455 -1.162322,-0.58117 -4.072231,-0.4724 -5.176055,0.18213 -1.044229,0.61922 -2.243939,1.87166 -2.512979,3.08727 -0.191564,0.86554 0.02906,2.22711 -0.494963,2.97283 -0.651367,0.92695 -2.996436,0.64167 -3.973713,1.40761 -2.940511,2.30465 -3.15397,6.26553 -0.481493,8.85877 0.749214,0.727 2.529938,1.0703 3.005524,1.94084 0.508718,0.93118 -0.148003,2.86789 0.04338,3.95932 0.260341,1.48471 1.965821,3.36336 3.45126,3.68457 1.011327,0.21869 2.216897,0.047 3.250081,0.047 0,0.87248 -0.07224,1.77978 0.01263,2.64821 0.04249,0.43467 0.36801,0.89131 0.193936,1.32411 -0.32935,0.81887 -1.361796,1.48197 -1.915294,2.16672 -1.122652,1.38888 -2.001394,3.26103 -2.143221,5.05568 -0.64107,0.11428 -1.201172,0.41872 -1.685227,0.85524 -0.736668,0.66435 -1.622257,1.4812 -1.779965,2.51521 -0.213496,1.3998 0.50869,3.56885 -0.369201,4.78921 -0.924491,1.28514 -3.439641,0.7542 -4.712116,1.44616 -3.389421,1.84313 -3.695698,7.60188 0.120374,9.24859 1.537386,0.66342 4.500464,-0.6781 5.693399,0.79386 0.827977,1.02163 0.704029,2.73232 0.974039,3.94492 0.276652,1.24241 1.96664,2.81532 3.203178,3.0827 2.377293,0.51407 5.849349,-0.31101 6.453164,-3.0827 0.336771,-1.54589 -0.451435,-3.4983 0.418892,-4.93003 0.751597,-1.23641 3.00182,-0.94408 4.202294,-1.28573 1.322479,-0.37638 1.800773,-1.7148 2.909396,-2.32742 0.594964,-0.32877 1.754307,-0.15398 2.387032,-0.004 -0.485711,0.59652 -1.147768,1.16516 -1.367668,1.92598 -0.356631,1.23389 -0.09229,2.9367 -0.04616,4.21306 0.09474,2.62139 -0.67209,6.28037 2.737935,7.26597 1.244172,0.3596 2.921269,0.0768 4.213069,0.0768 3.088549,0 6.186491,-0.0795 9.268748,-0.0795 7.343492,0 14.731368,0.15161 22.028332,-0.19561 0.55643,-0.0264 1.11717,0.25922 1.68523,0.27336 1.92546,0.0479 3.90592,-0.30405 5.77792,-0.26722 0.56441,0.0111 1.09427,0.26799 1.68523,0.26898 8.91446,0.0149 17.80702,0 26.72289,0 2.61528,0 5.26039,-0.21854 7.82426,-0.26898 2.1257,-0.0418 4.46992,0.7215 6.62054,0.15771 3.99145,-1.04637 5.82763,-5.91432 4.66799,-9.63897 -0.37739,-1.21213 -1.28884,-1.95303 -1.8994,-3.00934 8.44969,-1.74309 13.89693,-10.2715 16.06074,-18.056 0.55301,-1.98951 0.9119,-3.8326 0.9119,-5.8983 0,-0.8249 0.10758,-1.67962 -0.35749,-2.40746 -1.8223,-2.85198 -5.7705,-2.67135 -8.79089,-2.87819 -0.60685,-0.0415 -3.26175,0.37551 -3.18432,-0.6079 0.0236,-0.29919 0.27398,-0.42493 0.53844,-0.46841 1.05677,-0.17372 1.6008,-0.30792 2.40514,-1.10165 0.74146,-0.73168 1.29595,-1.41559 1.6437,-2.407 0.21163,-0.60339 0.36682,-1.70051 1.0268,-1.98719 0.46684,-0.20277 1.06792,0.10984 1.54256,0.16068 1.10056,0.1179 2.38917,0.11651 3.49083,0.008 2.89946,-0.28488 3.57222,-3.96649 3.22444,-6.24678 -0.22676,-1.48682 -1.90314,-2.85671 -3.22444,-3.36265 -0.67321,-0.25778 -1.76145,-0.37992 -2.214,-0.99653 -0.38068,-0.51867 0.0386,-1.22948 0.12855,-1.77986 0.16268,-0.99572 0.12512,-2.24606 0.0265,-3.25009 -0.29358,-2.98787 -4.22452,-3.84268 -6.60791,-3.32346 -1.34622,0.29328 -2.66696,1.96156 -3.08689,3.20309 -0.23474,0.69404 -0.46672,2.22726 -1.36748,2.347 -0.42867,0.057 -0.90104,-0.20364 -1.32355,-0.26452 -0.72809,-0.10493 -1.59264,0.13863 -2.28709,-0.12548 -0.66932,-0.25458 -1.07058,-0.90726 -1.80561,-1.06739 -2.51858,-0.54868 -5.45179,0.32719 -7.94463,0.65611 -1.26223,0.16655 -2.62281,0.22384 -3.6112,1.11513 -1.7202,1.55118 -1.95021,3.23781 -2.38342,5.40417 -0.15672,0.78368 -0.22914,2.50068 -0.9002,3.00831 -0.8479,0.6414 -2.55324,0.79596 -3.57766,1.07472 -1.57469,0.42849 -2.90857,1.4748 -3.73158,2.89862"
       id="path75" /></g></svg>
